<svg xmlns="http://www.w3.org/2000/svg" width="260" height="72" viewBox="0 0 260 72"><g><path fill="#84CC16" d="M44 8C22 10 9 23 10 42c1 13 12 21 24 17 18-6 23-27 10-51Z"/><path fill="#166534" d="M13 57c9-18 20-29 34-38-12 12-20 25-24 40Z"/><path fill="#22C55E" d="M34 40c8-9 17-12 28-9-1 13-9 23-22 24-5 0-8-3-6-15Z"/><path fill="none" stroke="#fff" stroke-width="3" stroke-linecap="round" d="M20 52c10-11 20-16 34-17"/></g><text x="76" y="43" font-family="Inter,Arial,sans-serif" font-size="30" font-weight="700" fill="#0F172A">Agri<tspan fill="#65A30D">Trace</tspan></text></svg>
